<svg xmlns="http://www.w3.org/2000/svg" xmlns:xlink="http://www.w3.org/1999/xlink" width="121" zoomAndPan="magnify" viewBox="0 0 240.75 141.750002" height="80" preserveAspectRatio="xMidYMid meet" version="1.0"><defs><g/><clipPath id="id1"><path d="M 113 19 L 179 19 L 179 72 L 113 72 Z M 113 19 " clip-rule="nonzero"/></clipPath><clipPath id="id2"><path d="M 156.785156 111.488281 L 29.433594 47.785156 L 69.667969 -32.648438 L 197.019531 31.054688 Z M 156.785156 111.488281 " clip-rule="nonzero"/></clipPath><clipPath id="id3"><path d="M 156.832031 111.511719 L 29.476562 47.808594 L 69.710938 -32.625 L 197.0625 31.078125 Z M 156.832031 111.511719 " clip-rule="nonzero"/></clipPath><clipPath id="id4"><path d="M 51 54 L 52 54 L 52 55 L 51 55 Z M 51 54 " clip-rule="nonzero"/></clipPath><clipPath id="id5"><path d="M 156.785156 111.488281 L 29.433594 47.785156 L 69.667969 -32.648438 L 197.019531 31.054688 Z M 156.785156 111.488281 " clip-rule="nonzero"/></clipPath><clipPath id="id6"><path d="M 156.832031 111.511719 L 29.476562 47.808594 L 69.710938 -32.625 L 197.0625 31.078125 Z M 156.832031 111.511719 " clip-rule="nonzero"/></clipPath><clipPath id="id7"><path d="M 51 54 L 52 54 L 52 56 L 51 56 Z M 51 54 " clip-rule="nonzero"/></clipPath><clipPath id="id8"><path d="M 156.785156 111.488281 L 29.433594 47.785156 L 69.667969 -32.648438 L 197.019531 31.054688 Z M 156.785156 111.488281 " clip-rule="nonzero"/></clipPath><clipPath id="id9"><path d="M 156.832031 111.511719 L 29.476562 47.808594 L 69.710938 -32.625 L 197.0625 31.078125 Z M 156.832031 111.511719 " clip-rule="nonzero"/></clipPath><clipPath id="id10"><path d="M 51 54 L 52 54 L 52 55 L 51 55 Z M 51 54 " clip-rule="nonzero"/></clipPath><clipPath id="id11"><path d="M 156.785156 111.488281 L 29.433594 47.785156 L 69.667969 -32.648438 L 197.019531 31.054688 Z M 156.785156 111.488281 " clip-rule="nonzero"/></clipPath><clipPath id="id12"><path d="M 156.832031 111.511719 L 29.476562 47.808594 L 69.710938 -32.625 L 197.0625 31.078125 Z M 156.832031 111.511719 " clip-rule="nonzero"/></clipPath><clipPath id="id13"><path d="M 51 55 L 52 55 L 52 56 L 51 56 Z M 51 55 " clip-rule="nonzero"/></clipPath><clipPath id="id14"><path d="M 156.785156 111.488281 L 29.433594 47.785156 L 69.667969 -32.648438 L 197.019531 31.054688 Z M 156.785156 111.488281 " clip-rule="nonzero"/></clipPath><clipPath id="id15"><path d="M 156.832031 111.511719 L 29.476562 47.808594 L 69.710938 -32.625 L 197.0625 31.078125 Z M 156.832031 111.511719 " clip-rule="nonzero"/></clipPath><clipPath id="id16"><path d="M 51 54 L 52 54 L 52 55 L 51 55 Z M 51 54 " clip-rule="nonzero"/></clipPath><clipPath id="id17"><path d="M 156.785156 111.488281 L 29.433594 47.785156 L 69.667969 -32.648438 L 197.019531 31.054688 Z M 156.785156 111.488281 " clip-rule="nonzero"/></clipPath><clipPath id="id18"><path d="M 156.832031 111.511719 L 29.476562 47.808594 L 69.710938 -32.625 L 197.0625 31.078125 Z M 156.832031 111.511719 " clip-rule="nonzero"/></clipPath><clipPath id="id19"><path d="M 52 59 L 53 59 L 53 60 L 52 60 Z M 52 59 " clip-rule="nonzero"/></clipPath><clipPath id="id20"><path d="M 156.785156 111.488281 L 29.433594 47.785156 L 69.667969 -32.648438 L 197.019531 31.054688 Z M 156.785156 111.488281 " clip-rule="nonzero"/></clipPath><clipPath id="id21"><path d="M 156.832031 111.511719 L 29.476562 47.808594 L 69.710938 -32.625 L 197.0625 31.078125 Z M 156.832031 111.511719 " clip-rule="nonzero"/></clipPath><clipPath id="id22"><path d="M 51 53 L 52 53 L 52 55 L 51 55 Z M 51 53 " clip-rule="nonzero"/></clipPath><clipPath id="id23"><path d="M 156.785156 111.488281 L 29.433594 47.785156 L 69.667969 -32.648438 L 197.019531 31.054688 Z M 156.785156 111.488281 " clip-rule="nonzero"/></clipPath><clipPath id="id24"><path d="M 156.832031 111.511719 L 29.476562 47.808594 L 69.710938 -32.625 L 197.0625 31.078125 Z M 156.832031 111.511719 " clip-rule="nonzero"/></clipPath><clipPath id="id25"><path d="M 52 59 L 54 59 L 54 60 L 52 60 Z M 52 59 " clip-rule="nonzero"/></clipPath><clipPath id="id26"><path d="M 156.785156 111.488281 L 29.433594 47.785156 L 69.667969 -32.648438 L 197.019531 31.054688 Z M 156.785156 111.488281 " clip-rule="nonzero"/></clipPath><clipPath id="id27"><path d="M 156.832031 111.511719 L 29.476562 47.808594 L 69.710938 -32.625 L 197.0625 31.078125 Z M 156.832031 111.511719 " clip-rule="nonzero"/></clipPath><clipPath id="id28"><path d="M 51 55 L 52 55 L 52 56 L 51 56 Z M 51 55 " clip-rule="nonzero"/></clipPath><clipPath id="id29"><path d="M 156.785156 111.488281 L 29.433594 47.785156 L 69.667969 -32.648438 L 197.019531 31.054688 Z M 156.785156 111.488281 " clip-rule="nonzero"/></clipPath><clipPath id="id30"><path d="M 156.832031 111.511719 L 29.476562 47.808594 L 69.710938 -32.625 L 197.0625 31.078125 Z M 156.832031 111.511719 " clip-rule="nonzero"/></clipPath><clipPath id="id31"><path d="M 52 57 L 53 57 L 53 58 L 52 58 Z M 52 57 " clip-rule="nonzero"/></clipPath><clipPath id="id32"><path d="M 156.785156 111.488281 L 29.433594 47.785156 L 69.667969 -32.648438 L 197.019531 31.054688 Z M 156.785156 111.488281 " clip-rule="nonzero"/></clipPath><clipPath id="id33"><path d="M 156.832031 111.511719 L 29.476562 47.808594 L 69.710938 -32.625 L 197.0625 31.078125 Z M 156.832031 111.511719 " clip-rule="nonzero"/></clipPath><clipPath id="id34"><path d="M 51 54 L 53 54 L 53 57 L 51 57 Z M 51 54 " clip-rule="nonzero"/></clipPath><clipPath id="id35"><path d="M 156.785156 111.488281 L 29.433594 47.785156 L 69.667969 -32.648438 L 197.019531 31.054688 Z M 156.785156 111.488281 " clip-rule="nonzero"/></clipPath><clipPath id="id36"><path d="M 156.832031 111.511719 L 29.476562 47.808594 L 69.710938 -32.625 L 197.0625 31.078125 Z M 156.832031 111.511719 " clip-rule="nonzero"/></clipPath><clipPath id="id37"><path d="M 52 57 L 53 57 L 53 58 L 52 58 Z M 52 57 " clip-rule="nonzero"/></clipPath><clipPath id="id38"><path d="M 156.785156 111.488281 L 29.433594 47.785156 L 69.667969 -32.648438 L 197.019531 31.054688 Z M 156.785156 111.488281 " clip-rule="nonzero"/></clipPath><clipPath id="id39"><path d="M 156.832031 111.511719 L 29.476562 47.808594 L 69.710938 -32.625 L 197.0625 31.078125 Z M 156.832031 111.511719 " clip-rule="nonzero"/></clipPath><clipPath id="id40"><path d="M 52 56 L 53 56 L 53 58 L 52 58 Z M 52 56 " clip-rule="nonzero"/></clipPath><clipPath id="id41"><path d="M 156.785156 111.488281 L 29.433594 47.785156 L 69.667969 -32.648438 L 197.019531 31.054688 Z M 156.785156 111.488281 " clip-rule="nonzero"/></clipPath><clipPath id="id42"><path d="M 156.832031 111.511719 L 29.476562 47.808594 L 69.710938 -32.625 L 197.0625 31.078125 Z M 156.832031 111.511719 " clip-rule="nonzero"/></clipPath><clipPath id="id43"><path d="M 52 56 L 53 56 L 53 60 L 52 60 Z M 52 56 " clip-rule="nonzero"/></clipPath><clipPath id="id44"><path d="M 156.785156 111.488281 L 29.433594 47.785156 L 69.667969 -32.648438 L 197.019531 31.054688 Z M 156.785156 111.488281 " clip-rule="nonzero"/></clipPath><clipPath id="id45"><path d="M 156.832031 111.511719 L 29.476562 47.808594 L 69.710938 -32.625 L 197.0625 31.078125 Z M 156.832031 111.511719 " clip-rule="nonzero"/></clipPath><clipPath id="id46"><path d="M 43 20 L 182 20 L 182 85 L 43 85 Z M 43 20 " clip-rule="nonzero"/></clipPath><clipPath id="id47"><path d="M 156.785156 111.488281 L 29.433594 47.785156 L 69.667969 -32.648438 L 197.019531 31.054688 Z M 156.785156 111.488281 " clip-rule="nonzero"/></clipPath><clipPath id="id48"><path d="M 156.832031 111.511719 L 29.476562 47.808594 L 69.710938 -32.625 L 197.0625 31.078125 Z M 156.832031 111.511719 " clip-rule="nonzero"/></clipPath><clipPath id="id49"><path d="M 52 56 L 53 56 L 53 57 L 52 57 Z M 52 56 " clip-rule="nonzero"/></clipPath><clipPath id="id50"><path d="M 156.785156 111.488281 L 29.433594 47.785156 L 69.667969 -32.648438 L 197.019531 31.054688 Z M 156.785156 111.488281 " clip-rule="nonzero"/></clipPath><clipPath id="id51"><path d="M 156.832031 111.511719 L 29.476562 47.808594 L 69.710938 -32.625 L 197.0625 31.078125 Z M 156.832031 111.511719 " clip-rule="nonzero"/></clipPath><clipPath id="id52"><path d="M 51 54 L 52 54 L 52 55 L 51 55 Z M 51 54 " clip-rule="nonzero"/></clipPath><clipPath id="id53"><path d="M 156.785156 111.488281 L 29.433594 47.785156 L 69.667969 -32.648438 L 197.019531 31.054688 Z M 156.785156 111.488281 " clip-rule="nonzero"/></clipPath><clipPath id="id54"><path d="M 156.832031 111.511719 L 29.476562 47.808594 L 69.710938 -32.625 L 197.0625 31.078125 Z M 156.832031 111.511719 " clip-rule="nonzero"/></clipPath><clipPath id="id55"><path d="M 52 57 L 53 57 L 53 59 L 52 59 Z M 52 57 " clip-rule="nonzero"/></clipPath><clipPath id="id56"><path d="M 156.785156 111.488281 L 29.433594 47.785156 L 69.667969 -32.648438 L 197.019531 31.054688 Z M 156.785156 111.488281 " clip-rule="nonzero"/></clipPath><clipPath id="id57"><path d="M 156.832031 111.511719 L 29.476562 47.808594 L 69.710938 -32.625 L 197.0625 31.078125 Z M 156.832031 111.511719 " clip-rule="nonzero"/></clipPath><clipPath id="id58"><path d="M 52 55 L 53 55 L 53 57 L 52 57 Z M 52 55 " clip-rule="nonzero"/></clipPath><clipPath id="id59"><path d="M 156.785156 111.488281 L 29.433594 47.785156 L 69.667969 -32.648438 L 197.019531 31.054688 Z M 156.785156 111.488281 " clip-rule="nonzero"/></clipPath><clipPath id="id60"><path d="M 156.832031 111.511719 L 29.476562 47.808594 L 69.710938 -32.625 L 197.0625 31.078125 Z M 156.832031 111.511719 " clip-rule="nonzero"/></clipPath></defs><g fill="#ffffff" fill-opacity="1"><g transform="translate(16.329907, 133.328909)"><g><path d="M 1.8125 0 L 1.8125 -31.515625 L 13.078125 -31.515625 L 13.078125 -27.734375 L 6.109375 -27.734375 L 6.109375 -17.84375 L 12.6875 -17.84375 L 12.6875 -14.0625 L 6.109375 -14.0625 L 6.109375 0 Z M 1.8125 0 "/></g></g></g><g fill="#ffffff" fill-opacity="1"><g transform="translate(32.478352, 133.328909)"><g><path d="M 1.8125 0 L 1.8125 -31.515625 L 6.109375 -31.515625 L 6.109375 0 Z M 1.8125 0 "/></g></g></g><g fill="#ffffff" fill-opacity="1"><g transform="translate(42.403948, 133.328909)"><g><path d="M 1.8125 0 L 1.8125 -31.515625 L 8.421875 -31.515625 L 10.484375 -21.5 L 13.03125 -3.78125 L 13.9375 -3.78125 L 13.203125 -19.21875 L 12.875 -31.515625 L 17.015625 -31.515625 L 17.015625 0 L 10.125 0 L 8 -10.796875 L 5.90625 -27.765625 L 4.921875 -27.765625 L 5.59375 -12.015625 L 5.953125 0 Z M 1.8125 0 "/></g></g></g><g fill="#ffffff" fill-opacity="1"><g transform="translate(63.239223, 133.328909)"><g><path d="M 1.8125 0 L 1.8125 -31.515625 L 8.34375 -31.515625 C 10.707031 -31.515625 12.421875 -30.992188 13.484375 -29.953125 C 14.554688 -28.921875 15.117188 -27.222656 15.171875 -24.859375 C 15.222656 -22.703125 15.253906 -20.644531 15.265625 -18.6875 C 15.273438 -16.726562 15.273438 -14.773438 15.265625 -12.828125 C 15.253906 -10.890625 15.222656 -8.847656 15.171875 -6.703125 C 15.117188 -4.304688 14.554688 -2.585938 13.484375 -1.546875 C 12.421875 -0.515625 10.695312 0 8.3125 0 Z M 6.109375 -3.78125 L 8.3125 -3.78125 C 10.019531 -3.78125 10.882812 -4.582031 10.90625 -6.1875 C 11.039062 -12.5625 11.039062 -18.941406 10.90625 -25.328125 C 10.882812 -26.929688 10.03125 -27.734375 8.34375 -27.734375 L 6.109375 -27.734375 Z M 6.109375 -3.78125 "/></g></g></g><g fill="#ffffff" fill-opacity="1"><g transform="translate(82.341553, 133.328909)"><g><path d="M 1.1875 -12.640625 L 1.1875 -16.421875 L 13.859375 -16.421875 L 13.859375 -12.640625 Z M 1.1875 -12.640625 "/></g></g></g><g fill="#ffffff" fill-opacity="1"><g transform="translate(99.395857, 133.328909)"><g><path d="M 0.90625 0 L 4.765625 -31.515625 L 11.859375 -31.515625 L 15.71875 0 L 11.390625 0 L 10.640625 -7.875 L 6.03125 -7.875 L 5.28125 0 Z M 6.421875 -11.625 L 10.203125 -11.625 L 9.53125 -18.546875 L 8.859375 -27.734375 L 7.765625 -27.734375 L 7.09375 -18.546875 Z M 6.421875 -11.625 "/></g></g></g><g fill="#ffffff" fill-opacity="1"><g transform="translate(117.907409, 133.328909)"><g><path d="M 1.1875 -12.640625 L 1.1875 -16.421875 L 13.859375 -16.421875 L 13.859375 -12.640625 Z M 1.1875 -12.640625 "/></g></g></g><g fill="#ffffff" fill-opacity="1"><g transform="translate(134.961707, 133.328909)"><g><path d="M 1.8125 0 L 1.8125 -31.515625 L 9.09375 -31.515625 L 11.21875 -19.109375 L 12.25 -3.828125 L 13.109375 -3.828125 L 14.0625 -19.109375 L 16.234375 -31.515625 L 23.484375 -31.515625 L 23.484375 0 L 19.21875 0 L 19.21875 -9.53125 L 19.96875 -27.734375 L 19.0625 -27.734375 L 17.09375 -9.171875 L 15.25 -0.078125 L 10.046875 -0.078125 L 8.234375 -9.171875 L 6.265625 -27.734375 L 5.359375 -27.734375 L 6.109375 -9.421875 L 6.109375 0 Z M 1.8125 0 "/></g></g></g><g fill="#ffffff" fill-opacity="1"><g transform="translate(162.256148, 133.328909)"><g><path d="M 8.671875 0.3125 C 6.304688 0.3125 4.601562 -0.179688 3.5625 -1.171875 C 2.53125 -2.171875 1.988281 -3.84375 1.9375 -6.1875 C 1.800781 -12.5625 1.800781 -18.957031 1.9375 -25.375 C 1.988281 -27.675781 2.53125 -29.328125 3.5625 -30.328125 C 4.601562 -31.328125 6.304688 -31.828125 8.671875 -31.828125 C 11.035156 -31.828125 12.726562 -31.328125 13.75 -30.328125 C 14.769531 -29.328125 15.320312 -27.675781 15.40625 -25.375 C 15.5625 -18.9375 15.5625 -12.539062 15.40625 -6.1875 C 15.320312 -3.84375 14.769531 -2.171875 13.75 -1.171875 C 12.726562 -0.179688 11.035156 0.3125 8.671875 0.3125 Z M 8.671875 -3.1875 C 10.265625 -3.1875 11.085938 -3.9375 11.140625 -5.4375 C 11.222656 -7.613281 11.269531 -9.882812 11.28125 -12.25 C 11.300781 -14.613281 11.296875 -16.976562 11.265625 -19.34375 C 11.234375 -21.707031 11.191406 -23.960938 11.140625 -26.109375 C 11.085938 -27.585938 10.265625 -28.328125 8.671875 -28.328125 C 7.035156 -28.328125 6.207031 -27.585938 6.1875 -26.109375 C 6.101562 -23.960938 6.046875 -21.707031 6.015625 -19.34375 C 5.992188 -16.976562 5.992188 -14.613281 6.015625 -12.25 C 6.046875 -9.882812 6.101562 -7.613281 6.1875 -5.4375 C 6.207031 -3.9375 7.035156 -3.1875 8.671875 -3.1875 Z M 8.671875 -3.1875 "/></g></g></g><g fill="#ffffff" fill-opacity="1"><g transform="translate(181.594794, 133.328909)"><g><path d="M 4.96875 0 L 0.90625 -31.515625 L 5.3125 -31.515625 L 7.359375 -14.84375 L 8.03125 -3.78125 L 8.90625 -3.78125 L 9.578125 -14.84375 L 11.625 -31.515625 L 16.03125 -31.515625 L 12.015625 0 Z M 4.96875 0 "/></g></g></g><g fill="#ffffff" fill-opacity="1"><g transform="translate(200.539588, 133.328909)"><g><path d="M 1.8125 0 L 1.8125 -31.515625 L 6.109375 -31.515625 L 6.109375 0 Z M 1.8125 0 "/></g></g></g><g fill="#ffffff" fill-opacity="1"><g transform="translate(210.465189, 133.328909)"><g><path d="M 1.8125 0 L 1.8125 -31.515625 L 13.078125 -31.515625 L 13.078125 -27.734375 L 6.109375 -27.734375 L 6.109375 -17.84375 L 12.6875 -17.84375 L 12.6875 -14.0625 L 6.109375 -14.0625 L 6.109375 -3.78125 L 13.078125 -3.78125 L 13.078125 0 Z M 1.8125 0 "/></g></g></g><g clip-path="url(#id1)"><g clip-path="url(#id2)"><g clip-path="url(#id3)"><path fill="#ffffff" d="M 117.144531 69.8125 C 117.464844 70.304688 117.804688 70.777344 118.160156 71.234375 C 111.195312 58.421875 118.109375 40.175781 134.257812 29.648438 C 150.40625 19.117188 169.90625 20.140625 178.84375 31.664062 C 178.566406 31.15625 178.269531 30.652344 177.949219 30.160156 C 169.554688 17.3125 149.136719 15.769531 132.34375 26.71875 C 115.550781 37.667969 108.746094 56.960938 117.144531 69.8125 " fill-opacity="1" fill-rule="nonzero"/></g></g></g><g clip-path="url(#id4)"><g clip-path="url(#id5)"><g clip-path="url(#id6)"><path fill="#ffffff" d="M 51.714844 54.527344 C 51.722656 54.554688 51.730469 54.585938 51.738281 54.613281 C 51.730469 54.585938 51.722656 54.554688 51.714844 54.527344 " fill-opacity="1" fill-rule="nonzero"/></g></g></g><g clip-path="url(#id7)"><g clip-path="url(#id8)"><g clip-path="url(#id9)"><path fill="#ffffff" d="M 51.828125 54.996094 C 51.84375 55.0625 51.863281 55.128906 51.878906 55.195312 C 51.863281 55.128906 51.84375 55.0625 51.828125 54.996094 " fill-opacity="1" fill-rule="nonzero"/></g></g></g><g clip-path="url(#id10)"><g clip-path="url(#id11)"><g clip-path="url(#id12)"><path fill="#ffffff" d="M 51.710938 54.507812 C 51.675781 54.375 51.644531 54.242188 51.613281 54.109375 L 51.597656 54.0625 C 51.601562 54.066406 51.601562 54.070312 51.605469 54.074219 C 51.640625 54.222656 51.675781 54.375 51.714844 54.527344 C 51.714844 54.519531 51.710938 54.515625 51.710938 54.507812 " fill-opacity="1" fill-rule="nonzero"/></g></g></g><g clip-path="url(#id13)"><g clip-path="url(#id14)"><g clip-path="url(#id15)"><path fill="#ffffff" d="M 51.878906 55.195312 C 51.902344 55.296875 51.925781 55.398438 51.949219 55.5 C 51.925781 55.398438 51.902344 55.296875 51.878906 55.195312 " fill-opacity="1" fill-rule="nonzero"/></g></g></g><g clip-path="url(#id16)"><g clip-path="url(#id17)"><g clip-path="url(#id18)"><path fill="#ffffff" d="M 51.738281 54.613281 C 51.765625 54.742188 51.796875 54.867188 51.828125 54.996094 C 51.796875 54.867188 51.769531 54.738281 51.738281 54.613281 " fill-opacity="1" fill-rule="nonzero"/></g></g></g><g clip-path="url(#id19)"><g clip-path="url(#id20)"><g clip-path="url(#id21)"><path fill="#ffffff" d="M 52.894531 59.496094 L 52.898438 59.496094 L 52.910156 59.492188 C 52.914062 59.492188 52.914062 59.492188 52.917969 59.492188 L 52.878906 59.328125 C 52.871094 59.335938 52.863281 59.34375 52.859375 59.351562 C 52.871094 59.402344 52.882812 59.445312 52.894531 59.496094 " fill-opacity="1" fill-rule="nonzero"/></g></g></g><g clip-path="url(#id22)"><g clip-path="url(#id23)"><g clip-path="url(#id24)"><path fill="#ffffff" d="M 51.59375 54.03125 C 51.59375 54.035156 51.59375 54.042969 51.597656 54.050781 C 51.492188 53.605469 51.382812 53.152344 51.59375 54.03125 " fill-opacity="1" fill-rule="nonzero"/></g></g></g><g clip-path="url(#id25)"><g clip-path="url(#id26)"><g clip-path="url(#id27)"><path fill="#ffffff" d="M 53 59.5 C 53.011719 59.492188 53.023438 59.484375 53.035156 59.472656 C 53.046875 59.464844 53.078125 59.449219 53.058594 59.457031 C 53.046875 59.457031 53.03125 59.464844 53.011719 59.46875 C 52.992188 59.472656 52.96875 59.480469 52.945312 59.484375 C 52.9375 59.488281 52.929688 59.488281 52.917969 59.492188 L 52.933594 59.542969 C 52.933594 59.542969 52.957031 59.527344 53 59.5 " fill-opacity="1" fill-rule="nonzero"/></g></g></g><g clip-path="url(#id28)"><g clip-path="url(#id29)"><g clip-path="url(#id30)"><path fill="#ffffff" d="M 51.949219 55.5 C 51.964844 55.570312 51.984375 55.640625 52 55.710938 C 51.984375 55.640625 51.964844 55.570312 51.949219 55.5 " fill-opacity="1" fill-rule="nonzero"/></g></g></g><g clip-path="url(#id31)"><g clip-path="url(#id32)"><g clip-path="url(#id33)"><path fill="#ffffff" d="M 52.496094 57.886719 C 52.46875 57.765625 52.441406 57.648438 52.417969 57.53125 C 52.441406 57.648438 52.46875 57.765625 52.496094 57.886719 " fill-opacity="1" fill-rule="nonzero"/></g></g></g><g clip-path="url(#id34)"><g clip-path="url(#id35)"><g clip-path="url(#id36)"><path fill="#ffffff" d="M 51.59375 54.03125 C 51.589844 54.03125 51.589844 54.027344 51.589844 54.027344 L 51.589844 54.019531 C 51.859375 55.160156 52.070312 56.03125 52.226562 56.695312 C 52.226562 56.695312 52.226562 56.691406 52.226562 56.6875 C 51.898438 55.3125 51.703125 54.488281 51.59375 54.03125 " fill-opacity="1" fill-rule="nonzero"/></g></g></g><g clip-path="url(#id37)"><g clip-path="url(#id38)"><g clip-path="url(#id39)"><path fill="#ffffff" d="M 52.375 57.34375 C 52.386719 57.40625 52.402344 57.46875 52.417969 57.53125 C 52.40625 57.480469 52.394531 57.433594 52.382812 57.382812 C 52.378906 57.367188 52.375 57.355469 52.375 57.34375 " fill-opacity="1" fill-rule="nonzero"/></g></g></g><g clip-path="url(#id40)"><g clip-path="url(#id41)"><g clip-path="url(#id42)"><path fill="#ffffff" d="M 52.226562 56.695312 C 52.277344 56.910156 52.324219 57.125 52.375 57.34375 C 52.332031 57.164062 52.292969 56.988281 52.253906 56.8125 C 52.246094 56.777344 52.234375 56.734375 52.226562 56.695312 " fill-opacity="1" fill-rule="nonzero"/></g></g></g><g clip-path="url(#id43)"><g clip-path="url(#id44)"><g clip-path="url(#id45)"><path fill="#ffffff" d="M 52.574219 58.152344 C 52.457031 57.65625 52.347656 57.207031 52.253906 56.808594 C 52.253906 56.808594 52.253906 56.8125 52.253906 56.8125 C 52.402344 57.441406 52.507812 57.871094 52.574219 58.152344 L 52.566406 58.164062 C 52.566406 58.167969 52.558594 58.171875 52.554688 58.175781 L 52.550781 58.152344 L 52.519531 57.996094 C 52.511719 57.960938 52.503906 57.921875 52.496094 57.886719 C 52.515625 57.984375 52.535156 58.078125 52.554688 58.175781 C 52.554688 58.183594 52.550781 58.1875 52.558594 58.191406 L 52.558594 58.195312 L 52.5625 58.199219 C 52.5625 58.195312 52.5625 58.199219 52.5625 58.199219 C 52.566406 58.226562 52.574219 58.253906 52.582031 58.28125 C 52.652344 58.640625 52.730469 59.007812 52.8125 59.386719 L 52.824219 59.445312 L 52.824219 59.441406 L 52.828125 59.429688 C 52.832031 59.421875 52.835938 59.410156 52.839844 59.398438 C 52.847656 59.386719 52.851562 59.367188 52.859375 59.351562 C 52.78125 59.015625 52.703125 58.699219 52.632812 58.402344 C 52.613281 58.320312 52.59375 58.234375 52.574219 58.152344 " fill-opacity="1" fill-rule="nonzero"/></g></g></g><g clip-path="url(#id46)"><g clip-path="url(#id47)"><g clip-path="url(#id48)"><path fill="#ffffff" d="M 50.941406 21.648438 C 51.238281 21.660156 51.628906 21.675781 52.023438 21.691406 C 52.417969 21.707031 52.800781 21.742188 53.09375 21.761719 C 53.382812 21.78125 53.578125 21.796875 53.578125 21.796875 L 53.78125 27.386719 C 53.78125 27.386719 53.605469 27.378906 53.347656 27.363281 C 53.082031 27.355469 52.738281 27.335938 52.386719 27.332031 C 52.035156 27.324219 51.683594 27.320312 51.417969 27.316406 C 51.15625 27.3125 50.976562 27.320312 50.976562 27.320312 L 50.445312 21.636719 C 50.445312 21.636719 50.648438 21.636719 50.941406 21.648438 Z M 57.308594 22.222656 C 57.59375 22.257812 57.964844 22.320312 58.335938 22.386719 C 58.710938 22.449219 59.082031 22.515625 59.359375 22.566406 C 59.5 22.589844 59.617188 22.609375 59.695312 22.625 C 59.777344 22.640625 59.824219 22.652344 59.824219 22.652344 L 59.429688 27.996094 C 59.429688 27.996094 59.386719 27.988281 59.3125 27.976562 C 59.238281 27.964844 59.132812 27.949219 59.007812 27.929688 C 58.753906 27.894531 58.417969 27.84375 58.082031 27.796875 C 57.742188 27.746094 57.40625 27.699219 57.148438 27.675781 C 56.894531 27.644531 56.722656 27.628906 56.722656 27.628906 L 56.839844 22.15625 C 56.839844 22.15625 57.027344 22.183594 57.308594 22.222656 Z M 63.40625 23.476562 C 63.675781 23.542969 64.039062 23.636719 64.394531 23.746094 C 65.105469 23.957031 65.820312 24.167969 65.820312 24.167969 L 64.890625 29.210938 C 64.890625 29.210938 64.242188 29.039062 63.589844 28.867188 C 63.265625 28.773438 62.933594 28.703125 62.691406 28.648438 C 62.441406 28.59375 62.277344 28.554688 62.277344 28.554688 L 62.953125 23.359375 C 62.953125 23.359375 63.136719 23.40625 63.40625 23.476562 Z M 65.6875 30.597656 C 66.066406 30.714844 66.480469 30.835938 66.914062 30.96875 C 67.351562 31.105469 67.800781 31.273438 68.269531 31.433594 C 69.207031 31.742188 70.179688 32.160156 71.152344 32.546875 C 71.636719 32.753906 72.113281 32.976562 72.578125 33.1875 C 73.050781 33.402344 73.507812 33.609375 73.941406 33.839844 C 74.808594 34.289062 75.625 34.691406 76.292969 35.09375 C 76.960938 35.484375 77.523438 35.800781 77.90625 36.039062 C 78.285156 36.285156 78.5 36.421875 78.5 36.421875 C 78.917969 36.691406 79.183594 37.140625 79.273438 37.636719 C 79.363281 38.132812 79.277344 38.679688 78.996094 39.171875 L 72.644531 50.363281 C 72.089844 51.324219 71.132812 51.933594 70.519531 51.703125 C 70.519531 51.703125 70.359375 51.644531 70.082031 51.535156 C 69.800781 51.433594 69.390625 51.316406 68.910156 51.15625 C 68.429688 50.984375 67.851562 50.851562 67.246094 50.6875 C 66.949219 50.597656 66.628906 50.535156 66.308594 50.464844 C 65.984375 50.402344 65.664062 50.324219 65.335938 50.261719 C 64.679688 50.160156 64.035156 50.027344 63.417969 49.972656 C 63.113281 49.9375 62.820312 49.894531 62.539062 49.871094 C 62.261719 49.851562 61.996094 49.828125 61.75 49.8125 C 61.265625 49.765625 60.855469 49.769531 60.574219 49.757812 C 60.289062 49.746094 60.128906 49.738281 60.128906 49.738281 C 59.816406 49.738281 59.574219 49.476562 59.417969 49.039062 C 59.265625 48.597656 59.203125 47.988281 59.277344 47.316406 L 61.023438 31.941406 C 61.097656 31.273438 61.363281 30.703125 61.746094 30.335938 C 62.125 29.96875 62.617188 29.792969 63.117188 29.910156 C 63.117188 29.910156 63.378906 29.976562 63.828125 30.089844 C 64.277344 30.210938 64.925781 30.359375 65.6875 30.597656 Z M 70.183594 25.730469 C 70.523438 25.867188 70.863281 26 71.113281 26.117188 C 71.363281 26.226562 71.53125 26.300781 71.53125 26.300781 L 70.136719 30.988281 C 70.136719 30.988281 69.984375 30.925781 69.753906 30.832031 C 69.523438 30.734375 69.207031 30.621094 68.894531 30.507812 C 68.265625 30.285156 67.636719 30.058594 67.636719 30.058594 L 68.8125 25.195312 C 68.8125 25.195312 69.5 25.460938 70.183594 25.730469 Z M 74.761719 27.832031 C 75 27.957031 75.328125 28.113281 75.644531 28.289062 C 76.269531 28.640625 76.898438 28.996094 76.898438 28.996094 L 75.105469 33.296875 C 75.105469 33.296875 74.523438 32.992188 73.9375 32.683594 C 73.644531 32.535156 73.34375 32.402344 73.121094 32.292969 C 72.894531 32.191406 72.746094 32.121094 72.746094 32.121094 L 74.355469 27.628906 C 74.355469 27.628906 74.515625 27.710938 74.761719 27.832031 Z M 79.890625 30.828125 C 80.003906 30.898438 80.136719 30.980469 80.273438 31.074219 C 80.410156 31.167969 80.554688 31.269531 80.699219 31.371094 C 81.277344 31.78125 81.851562 32.1875 81.851562 32.1875 L 79.734375 36.074219 C 79.734375 36.074219 79.191406 35.714844 78.652344 35.359375 C 78.515625 35.269531 78.378906 35.183594 78.253906 35.097656 C 78.125 35.019531 78 34.945312 77.894531 34.882812 C 77.683594 34.757812 77.546875 34.675781 77.546875 34.675781 L 79.515625 30.589844 C 79.515625 30.589844 79.667969 30.683594 79.890625 30.828125 Z M 72.289062 53.433594 C 72.289062 53.433594 72.386719 53.472656 72.53125 53.53125 C 72.605469 53.5625 72.691406 53.59375 72.78125 53.636719 C 72.871094 53.679688 72.964844 53.726562 73.058594 53.773438 C 73.441406 53.957031 73.824219 54.140625 73.824219 54.140625 L 71.460938 57.605469 C 71.460938 57.605469 71.105469 57.46875 70.75 57.335938 C 70.660156 57.304688 70.570312 57.269531 70.488281 57.238281 C 70.40625 57.210938 70.324219 57.1875 70.257812 57.167969 C 70.125 57.125 70.035156 57.097656 70.035156 57.097656 Z M 73.265625 50.660156 L 79.757812 39.695312 C 80.039062 39.21875 80.453125 38.898438 80.902344 38.773438 C 81.34375 38.648438 81.828125 38.714844 82.214844 39.015625 C 82.214844 39.015625 83 39.648438 84.179688 40.597656 C 84.746094 41.097656 85.398438 41.683594 86.089844 42.308594 C 86.269531 42.460938 86.4375 42.628906 86.605469 42.796875 C 86.777344 42.964844 86.949219 43.136719 87.121094 43.308594 C 87.464844 43.652344 87.816406 44 88.164062 44.351562 C 88.34375 44.519531 88.507812 44.707031 88.671875 44.886719 C 88.835938 45.066406 89 45.246094 89.164062 45.425781 C 89.484375 45.785156 89.800781 46.136719 90.109375 46.476562 C 90.421875 46.808594 90.6875 47.160156 90.957031 47.480469 C 91.21875 47.804688 91.46875 48.109375 91.695312 48.390625 C 91.925781 48.671875 92.132812 48.929688 92.320312 49.15625 C 92.492188 49.394531 92.644531 49.597656 92.769531 49.769531 C 93.015625 50.105469 93.160156 50.300781 93.160156 50.300781 C 93.707031 51.050781 93.597656 52.113281 92.917969 52.679688 L 85.167969 59.214844 C 84.492188 59.78125 83.5 59.847656 82.957031 59.367188 C 82.957031 59.367188 82.816406 59.242188 82.570312 59.023438 C 82.449219 58.910156 82.300781 58.777344 82.132812 58.625 C 81.953125 58.484375 81.753906 58.324219 81.535156 58.144531 C 81.316406 57.972656 81.082031 57.78125 80.832031 57.582031 C 80.582031 57.386719 80.332031 57.160156 80.046875 56.964844 C 79.765625 56.765625 79.476562 56.558594 79.183594 56.347656 C 79.039062 56.242188 78.890625 56.132812 78.742188 56.027344 C 78.597656 55.921875 78.449219 55.8125 78.292969 55.714844 C 77.988281 55.519531 77.6875 55.324219 77.386719 55.132812 C 77.234375 55.035156 77.089844 54.941406 76.941406 54.847656 C 76.796875 54.75 76.652344 54.65625 76.507812 54.578125 C 75.925781 54.246094 75.386719 53.9375 74.921875 53.671875 C 73.980469 53.199219 73.351562 52.882812 73.351562 52.882812 C 73.046875 52.738281 72.882812 52.4375 72.867188 52.03125 C 72.851562 51.632812 72.980469 51.136719 73.265625 50.660156 Z M 84.234375 34.007812 C 84.234375 34.007812 84.371094 34.113281 84.574219 34.277344 C 84.675781 34.359375 84.796875 34.449219 84.917969 34.554688 C 85.042969 34.660156 85.171875 34.773438 85.304688 34.886719 C 85.824219 35.34375 86.339844 35.796875 86.339844 35.796875 L 83.976562 39.257812 C 83.976562 39.257812 83.484375 38.855469 82.992188 38.453125 C 82.867188 38.351562 82.742188 38.253906 82.628906 38.15625 C 82.511719 38.066406 82.398438 37.984375 82.300781 37.910156 C 82.109375 37.769531 81.980469 37.671875 81.980469 37.671875 Z M 88.46875 37.796875 C 88.46875 37.796875 88.589844 37.914062 88.773438 38.09375 C 88.949219 38.269531 89.195312 38.503906 89.429688 38.75 C 89.882812 39.238281 90.339844 39.730469 90.339844 39.730469 L 87.8125 42.777344 C 87.8125 42.777344 87.375 42.335938 86.933594 41.894531 C 86.710938 41.675781 86.472656 41.46875 86.300781 41.308594 C 86.128906 41.148438 86.011719 41.042969 86.011719 41.042969 Z M 92.21875 41.863281 C 92.21875 41.863281 92.636719 42.371094 93.054688 42.878906 C 93.261719 43.132812 93.472656 43.382812 93.621094 43.578125 C 93.765625 43.773438 93.863281 43.902344 93.863281 43.902344 L 91.246094 46.554688 C 91.246094 46.554688 91.148438 46.433594 91.003906 46.257812 C 90.863281 46.078125 90.652344 45.855469 90.453125 45.625 C 90.042969 45.164062 89.636719 44.703125 89.636719 44.703125 Z M 95.507812 46.128906 C 95.507812 46.128906 95.53125 46.160156 95.570312 46.21875 C 95.609375 46.277344 95.664062 46.359375 95.730469 46.460938 C 95.863281 46.660156 96.039062 46.925781 96.214844 47.191406 C 96.566406 47.71875 96.917969 48.25 96.917969 48.25 L 94.273438 50.53125 L 92.867188 48.585938 Z M 95.550781 53.773438 C 95.550781 53.773438 95.699219 53.996094 95.917969 54.332031 C 96.132812 54.667969 96.394531 55.128906 96.671875 55.585938 C 97.207031 56.496094 97.742188 57.40625 97.742188 57.40625 C 97.742188 57.40625 97.90625 57.703125 98.152344 58.152344 C 98.394531 58.609375 98.75 59.1875 99.09375 59.777344 C 99.457031 60.351562 99.8125 60.941406 100.101562 61.359375 C 100.390625 61.785156 100.578125 62.070312 100.578125 62.070312 C 100.578125 62.070312 100.707031 62.246094 100.894531 62.511719 C 101.082031 62.773438 101.332031 63.132812 101.597656 63.476562 C 101.859375 63.820312 102.121094 64.171875 102.328125 64.421875 C 102.53125 64.675781 102.667969 64.84375 102.667969 64.84375 C 103.128906 65.421875 103.179688 66.253906 102.746094 66.730469 L 97.761719 72.171875 C 97.546875 72.410156 97.207031 72.511719 96.828125 72.488281 C 96.449219 72.460938 96.027344 72.308594 95.675781 72.019531 C 95.675781 72.019531 95.46875 71.851562 95.160156 71.59375 C 94.84375 71.34375 94.441406 70.992188 94.035156 70.640625 C 93.625 70.292969 93.234375 69.925781 92.941406 69.65625 C 92.644531 69.382812 92.449219 69.199219 92.449219 69.199219 C 92.449219 69.199219 92.144531 68.90625 91.6875 68.460938 C 91.226562 68.023438 90.648438 67.410156 90.054688 66.800781 C 89.488281 66.175781 88.90625 65.550781 88.496094 65.066406 C 88.082031 64.585938 87.804688 64.265625 87.804688 64.265625 C 87.804688 64.265625 87.207031 63.613281 86.609375 62.957031 C 86.3125 62.636719 86.023438 62.308594 85.796875 62.074219 C 85.5625 61.84375 85.40625 61.691406 85.40625 61.691406 C 84.878906 61.175781 85.003906 60.308594 85.679688 59.746094 L 93.417969 53.394531 C 94.09375 52.835938 95.050781 53.003906 95.550781 53.773438 Z M 98.328125 50.546875 C 98.328125 50.546875 98.644531 51.082031 98.960938 51.621094 C 99.035156 51.753906 99.117188 51.886719 99.191406 52.015625 C 99.257812 52.140625 99.320312 52.261719 99.375 52.363281 C 99.484375 52.570312 99.554688 52.703125 99.554688 52.703125 L 96.941406 54.652344 C 96.941406 54.652344 96.867188 54.527344 96.757812 54.335938 C 96.703125 54.242188 96.636719 54.128906 96.566406 54.011719 C 96.492188 53.894531 96.414062 53.769531 96.332031 53.644531 C 96.011719 53.148438 95.695312 52.652344 95.695312 52.652344 Z M 100.773438 55.035156 C 100.773438 55.035156 100.800781 55.089844 100.832031 55.140625 C 100.84375 55.167969 100.859375 55.195312 100.867188 55.214844 C 100.875 55.230469 100.878906 55.242188 100.878906 55.242188 C 100.878906 55.242188 101.039062 55.601562 101.203125 55.964844 C 101.285156 56.148438 101.359375 56.335938 101.425781 56.46875 C 101.488281 56.601562 101.53125 56.691406 101.53125 56.691406 L 99.101562 58.496094 C 99.101562 58.496094 99.050781 58.40625 98.972656 58.269531 C 98.894531 58.132812 98.800781 57.945312 98.699219 57.757812 C 98.503906 57.386719 98.304688 57.015625 98.304688 57.015625 C 98.304688 57.015625 98.300781 57.007812 98.292969 56.992188 C 98.28125 56.972656 98.265625 56.949219 98.253906 56.921875 C 98.222656 56.875 98.195312 56.824219 98.195312 56.824219 Z M 102.386719 58.414062 C 102.386719 58.414062 102.429688 58.503906 102.5 58.636719 C 102.566406 58.773438 102.667969 58.945312 102.761719 59.121094 C 102.953125 59.46875 103.148438 59.820312 103.148438 59.820312 L 103.238281 59.96875 L 101.144531 61.816406 L 101.039062 61.667969 C 101.039062 61.667969 100.8125 61.3125 100.582031 60.960938 C 100.46875 60.78125 100.351562 60.609375 100.269531 60.472656 C 100.1875 60.335938 100.132812 60.246094 100.132812 60.246094 Z M 104.226562 61.59375 C 104.226562 61.59375 104.285156 61.6875 104.375 61.832031 C 104.46875 61.96875 104.589844 62.15625 104.714844 62.339844 C 104.839844 62.523438 104.964844 62.710938 105.058594 62.847656 C 105.15625 62.984375 105.21875 63.074219 105.21875 63.074219 L 103.460938 64.933594 C 103.460938 64.933594 103.386719 64.84375 103.273438 64.707031 C 103.167969 64.566406 103.023438 64.382812 102.878906 64.199219 C 102.734375 64.011719 102.589844 63.828125 102.480469 63.6875 C 102.378906 63.546875 102.308594 63.453125 102.308594 63.453125 Z M 104.0625 66.960938 C 104.210938 66.972656 104.363281 67.019531 104.511719 67.089844 C 104.660156 67.164062 104.800781 67.269531 104.929688 67.402344 C 104.929688 67.402344 105.066406 67.542969 105.300781 67.789062 C 105.539062 68.027344 105.882812 68.367188 106.300781 68.773438 C 107.144531 69.574219 108.3125 70.601562 109.558594 71.5625 C 110.796875 72.523438 112.109375 73.410156 113.121094 74.035156 C 113.625 74.355469 114.0625 74.59375 114.359375 74.777344 C 114.664062 74.949219 114.839844 75.046875 114.839844 75.046875 C 115.503906 75.429688 115.949219 76.015625 115.804688 76.394531 L 114.128906 80.730469 C 114.054688 80.921875 113.820312 81.042969 113.496094 81.085938 C 113.171875 81.132812 112.757812 81.097656 112.335938 80.964844 C 112.335938 80.964844 111.464844 80.703125 110.167969 80.230469 C 108.875 79.761719 107.164062 79.070312 105.492188 78.257812 C 103.820312 77.449219 102.191406 76.53125 100.996094 75.792969 C 100.402344 75.417969 99.90625 75.101562 99.5625 74.875 C 99.226562 74.640625 99.03125 74.511719 99.03125 74.511719 C 98.269531 74.007812 98.027344 73.175781 98.445312 72.707031 L 103.253906 67.273438 C 103.464844 67.035156 103.761719 66.933594 104.0625 66.960938 Z M 106.363281 64.621094 C 106.363281 64.621094 106.429688 64.710938 106.535156 64.839844 C 106.644531 64.972656 106.785156 65.148438 106.925781 65.320312 C 107.066406 65.496094 107.210938 65.671875 107.320312 65.800781 C 107.433594 65.925781 107.507812 66.015625 107.507812 66.015625 L 106.074219 67.839844 C 106.074219 67.839844 105.988281 67.757812 105.863281 67.632812 C 105.738281 67.507812 105.578125 67.332031 105.414062 67.160156 C 105.253906 66.988281 105.09375 66.816406 104.972656 66.683594 C 104.851562 66.558594 104.773438 66.464844 104.773438 66.464844 Z M 108.808594 67.460938 C 108.808594 67.460938 109.128906 67.789062 109.445312 68.117188 C 109.773438 68.4375 110.101562 68.757812 110.101562 68.757812 L 108.972656 70.519531 C 108.972656 70.519531 108.609375 70.207031 108.242188 69.898438 C 107.890625 69.578125 107.535156 69.257812 107.535156 69.257812 Z M 111.566406 70.089844 C 111.566406 70.089844 111.914062 70.398438 112.277344 70.695312 C 112.457031 70.839844 112.636719 70.992188 112.777344 71.101562 C 112.914062 71.207031 113.007812 71.28125 113.007812 71.28125 L 112.15625 72.929688 C 112.15625 72.929688 112.054688 72.863281 111.90625 72.761719 C 111.753906 72.660156 111.558594 72.511719 111.363281 72.375 C 110.964844 72.09375 110.585938 71.800781 110.585938 71.800781 Z M 114.867188 72.660156 C 115.015625 72.757812 115.207031 72.902344 115.40625 73.03125 C 115.605469 73.164062 115.804688 73.292969 115.953125 73.394531 C 116.105469 73.492188 116.203125 73.558594 116.203125 73.558594 L 115.597656 75.0625 C 115.597656 75.0625 115.488281 75 115.328125 74.910156 C 115.167969 74.820312 114.957031 74.699219 114.742188 74.574219 C 114.53125 74.453125 114.324219 74.324219 114.164062 74.230469 C 114.007812 74.132812 113.902344 74.070312 113.902344 74.070312 L 114.625 72.488281 C 114.625 72.488281 114.722656 72.558594 114.867188 72.660156 Z M 118.015625 76.660156 C 118.015625 76.660156 118.058594 76.683594 118.144531 76.722656 C 118.230469 76.765625 118.359375 76.820312 118.519531 76.890625 C 118.84375 77.03125 119.308594 77.238281 119.871094 77.46875 C 121 77.929688 122.535156 78.496094 124.109375 78.976562 C 125.683594 79.457031 127.292969 79.859375 128.511719 80.117188 C 129.734375 80.375 130.558594 80.511719 130.558594 80.511719 C 131.351562 80.65625 131.992188 80.882812 131.988281 81.046875 L 131.910156 82.964844 C 131.902344 83.128906 131.21875 83.308594 130.371094 83.339844 C 130.371094 83.339844 130.152344 83.347656 129.765625 83.355469 C 129.382812 83.367188 128.835938 83.371094 128.171875 83.371094 C 126.851562 83.367188 125.085938 83.300781 123.3125 83.140625 C 121.539062 82.980469 119.765625 82.71875 118.4375 82.472656 C 117.773438 82.351562 117.222656 82.234375 116.835938 82.152344 C 116.640625 82.113281 116.488281 82.078125 116.386719 82.054688 C 116.285156 82.03125 116.226562 82.015625 116.226562 82.015625 C 115.375 81.828125 114.796875 81.339844 114.9375 80.96875 L 116.5 76.722656 C 116.636719 76.347656 117.308594 76.335938 118.015625 76.660156 Z M 118.816406 75.101562 C 119.246094 75.332031 119.675781 75.558594 119.675781 75.558594 L 119.273438 76.890625 C 119.273438 76.890625 118.820312 76.683594 118.363281 76.476562 C 117.917969 76.261719 117.46875 76.046875 117.46875 76.046875 L 117.96875 74.628906 C 117.96875 74.628906 118.390625 74.867188 118.816406 75.101562 Z M 122.472656 76.886719 C 122.929688 77.082031 123.386719 77.277344 123.386719 77.277344 L 123.144531 78.40625 C 123.144531 78.40625 122.671875 78.238281 122.195312 78.070312 C 121.722656 77.894531 121.253906 77.714844 121.253906 77.714844 L 121.566406 76.484375 C 121.566406 76.484375 122.019531 76.6875 122.472656 76.886719 Z M 125.6875 78.148438 C 125.863281 78.210938 126.101562 78.296875 126.339844 78.378906 C 126.582031 78.457031 126.820312 78.535156 127 78.597656 C 127.183594 78.652344 127.304688 78.691406 127.304688 78.691406 L 127.183594 79.605469 C 127.183594 79.605469 127.058594 79.578125 126.875 79.53125 C 126.6875 79.480469 126.441406 79.414062 126.195312 79.347656 C 125.949219 79.28125 125.707031 79.207031 125.523438 79.15625 C 125.339844 79.101562 125.214844 79.066406 125.214844 79.066406 L 125.390625 78.046875 C 125.390625 78.046875 125.507812 78.085938 125.6875 78.148438 Z M 131.367188 80.175781 L 131.347656 80.492188 C 131.347656 80.492188 130.84375 80.398438 130.332031 80.308594 C 130.082031 80.257812 129.828125 80.207031 129.640625 80.171875 C 129.449219 80.132812 129.324219 80.105469 129.324219 80.105469 L 129.394531 79.304688 C 129.394531 79.304688 129.503906 79.332031 129.664062 79.378906 C 130.21875 79.664062 130.785156 79.929688 131.367188 80.175781 Z M 127.5 69.628906 C 123.660156 68.242188 122.601562 63.957031 125.136719 60.058594 C 127.671875 56.160156 132.839844 54.121094 136.683594 55.507812 C 140.523438 56.894531 141.582031 61.179688 139.042969 65.078125 C 136.507812 68.976562 131.339844 71.015625 127.5 69.628906 Z M 127.929688 47.011719 C 128.207031 42.941406 132.152344 39.035156 136.746094 38.285156 C 141.339844 37.535156 144.839844 40.230469 144.566406 44.296875 C 144.289062 48.367188 140.34375 52.273438 135.75 53.023438 C 131.152344 53.773438 127.652344 51.082031 127.929688 47.011719 Z M 150.488281 31.214844 C 154.601562 28.53125 159.609375 28.90625 161.664062 32.058594 C 163.722656 35.207031 162.058594 39.9375 157.941406 42.621094 C 153.824219 45.304688 148.820312 44.925781 146.761719 41.777344 C 144.703125 38.628906 146.371094 33.898438 150.488281 31.214844 Z M 161.070312 42.582031 C 163.605469 38.683594 168.773438 36.644531 172.613281 38.03125 C 176.453125 39.417969 177.511719 43.703125 174.976562 47.601562 C 172.441406 51.5 167.273438 53.539062 163.433594 52.152344 C 159.589844 50.765625 158.535156 46.480469 161.070312 42.582031 Z M 172.183594 60.648438 C 171.910156 64.714844 167.960938 68.625 163.367188 69.375 C 158.773438 70.121094 155.273438 67.429688 155.550781 63.359375 C 155.824219 59.289062 159.773438 55.382812 164.367188 54.632812 C 168.960938 53.886719 172.460938 56.578125 172.183594 60.648438 Z M 149.625 76.445312 C 145.511719 79.128906 140.507812 78.75 138.449219 75.601562 C 136.390625 72.453125 138.058594 67.722656 142.175781 65.039062 C 146.289062 62.355469 151.296875 62.730469 153.355469 65.882812 C 155.414062 69.03125 153.742188 73.761719 149.625 76.445312 Z M 139.25 82.359375 C 138.011719 82.597656 136.757812 82.785156 135.816406 82.902344 C 134.871094 83.023438 134.238281 83.082031 134.238281 83.082031 C 133.398438 83.167969 132.722656 83.089844 132.726562 82.929688 L 132.773438 81.136719 C 132.777344 81.058594 132.941406 81.007812 133.207031 80.988281 C 133.3125 80.980469 133.433594 80.980469 133.566406 80.984375 C 135.601562 81.625 137.769531 82.039062 140.019531 82.207031 C 139.765625 82.261719 139.507812 82.3125 139.25 82.359375 Z M 139.011719 82.75 C 138.484375 82.882812 137.957031 83.003906 137.957031 83.003906 L 137.933594 82.667969 C 137.933594 82.667969 138.460938 82.578125 138.988281 82.472656 C 139.515625 82.367188 140.035156 82.257812 140.035156 82.257812 L 140.058594 82.480469 C 140.058594 82.480469 139.539062 82.621094 139.011719 82.75 Z M 135.332031 83.542969 C 135.128906 83.578125 134.859375 83.625 134.589844 83.671875 C 134.316406 83.714844 134.046875 83.761719 133.84375 83.792969 C 133.640625 83.824219 133.503906 83.84375 133.503906 83.84375 L 133.511719 83.273438 C 133.511719 83.273438 133.644531 83.261719 133.847656 83.242188 C 134.050781 83.21875 134.316406 83.191406 134.585938 83.160156 C 134.855469 83.125 135.121094 83.09375 135.324219 83.066406 C 135.523438 83.042969 135.65625 83.023438 135.65625 83.023438 L 135.667969 83.480469 C 135.667969 83.480469 135.53125 83.507812 135.332031 83.542969 Z M 130.054688 84.253906 C 129.777344 84.277344 129.5 84.300781 129.292969 84.320312 C 129.085938 84.332031 128.945312 84.34375 128.945312 84.34375 L 129.015625 83.542969 C 129.015625 83.542969 129.152344 83.539062 129.359375 83.535156 C 129.5625 83.527344 129.835938 83.519531 130.109375 83.511719 C 130.652344 83.484375 131.195312 83.457031 131.195312 83.457031 L 131.15625 84.148438 C 131.15625 84.148438 130.605469 84.199219 130.054688 84.253906 Z M 126.203125 84.472656 C 125.992188 84.476562 125.710938 84.480469 125.429688 84.484375 C 125.148438 84.488281 124.863281 84.484375 124.652344 84.484375 C 124.441406 84.484375 124.300781 84.480469 124.300781 84.480469 L 124.472656 83.460938 C 124.472656 83.460938 124.609375 83.464844 124.816406 83.480469 C 125.023438 83.488281 125.296875 83.503906 125.574219 83.511719 C 125.847656 83.523438 126.121094 83.53125 126.328125 83.539062 C 126.535156 83.542969 126.671875 83.546875 126.671875 83.546875 L 126.554688 84.460938 C 126.554688 84.460938 126.414062 84.464844 126.203125 84.472656 Z M 120.726562 84.332031 C 120.15625 84.28125 119.585938 84.234375 119.585938 84.234375 L 119.902344 83.003906 C 119.902344 83.003906 120.453125 83.074219 121.003906 83.148438 C 121.558594 83.210938 122.109375 83.273438 122.109375 83.273438 L 121.867188 84.40625 C 121.867188 84.40625 121.296875 84.367188 120.726562 84.332031 Z M 115.984375 83.761719 C 115.410156 83.660156 114.835938 83.5625 114.835938 83.5625 L 115.332031 82.144531 C 115.332031 82.144531 115.882812 82.265625 116.433594 82.386719 C 116.984375 82.496094 117.535156 82.609375 117.535156 82.609375 L 117.132812 83.9375 C 117.132812 83.9375 116.558594 83.851562 115.984375 83.761719 Z M 112.015625 82.953125 C 111.800781 82.898438 111.515625 82.824219 111.230469 82.753906 C 110.941406 82.683594 110.65625 82.597656 110.441406 82.539062 C 110.226562 82.480469 110.085938 82.4375 110.085938 82.4375 L 110.804688 80.859375 C 110.804688 80.859375 110.941406 80.902344 111.144531 80.96875 C 111.351562 81.035156 111.617188 81.128906 111.890625 81.210938 C 112.164062 81.289062 112.4375 81.371094 112.640625 81.433594 C 112.847656 81.492188 112.984375 81.53125 112.984375 81.53125 L 112.375 83.039062 C 112.375 83.039062 112.230469 83.003906 112.015625 82.953125 Z M 107.644531 81.675781 C 107.644531 81.675781 107.503906 81.628906 107.289062 81.554688 C 107.074219 81.484375 106.796875 81.375 106.511719 81.273438 C 105.945312 81.074219 105.382812 80.847656 105.382812 80.847656 L 106.367188 79.136719 C 106.367188 79.136719 106.894531 79.378906 107.429688 79.59375 C 107.695312 79.703125 107.957031 79.816406 108.160156 79.894531 C 108.363281 79.972656 108.496094 80.023438 108.496094 80.023438 Z M 102.992188 79.839844 C 102.992188 79.839844 102.4375 79.582031 101.886719 79.324219 C 101.335938 79.054688 100.789062 78.78125 100.789062 78.78125 L 102.0625 76.984375 C 102.0625 76.984375 102.574219 77.265625 103.085938 77.546875 C 103.601562 77.8125 104.121094 78.078125 104.121094 78.078125 Z M 98.476562 77.527344 C 98.476562 77.527344 98.339844 77.453125 98.140625 77.335938 C 97.9375 77.226562 97.675781 77.0625 97.410156 76.902344 C 97.148438 76.742188 96.882812 76.582031 96.6875 76.460938 C 96.488281 76.339844 96.359375 76.253906 96.359375 76.253906 L 97.949219 74.40625 C 97.949219 74.40625 98.066406 74.496094 98.25 74.613281 C 98.433594 74.738281 98.679688 74.902344 98.921875 75.0625 C 99.167969 75.226562 99.410156 75.390625 99.597656 75.503906 C 99.785156 75.621094 99.910156 75.699219 99.910156 75.699219 Z M 94.152344 74.773438 C 94.152344 74.773438 94.023438 74.683594 93.832031 74.550781 C 93.644531 74.410156 93.394531 74.230469 93.144531 74.042969 C 92.894531 73.859375 92.644531 73.671875 92.453125 73.53125 C 92.269531 73.386719 92.148438 73.292969 92.148438 73.292969 L 94.066406 71.4375 C 94.066406 71.4375 94.179688 71.53125 94.347656 71.675781 C 94.519531 71.8125 94.75 72 94.980469 72.183594 C 95.210938 72.371094 95.441406 72.554688 95.613281 72.691406 C 95.789062 72.828125 95.910156 72.914062 95.910156 72.914062 Z M 90.066406 71.609375 L 89.878906 71.449219 C 89.878906 71.449219 89.457031 71.078125 89.03125 70.707031 C 88.820312 70.519531 88.609375 70.332031 88.453125 70.1875 C 88.296875 70.042969 88.195312 69.949219 88.195312 69.949219 L 90.449219 68.117188 C 90.449219 68.117188 90.542969 68.210938 90.683594 68.355469 C 90.824219 68.496094 91.019531 68.679688 91.210938 68.867188 C 91.597656 69.234375 91.984375 69.601562 91.984375 69.601562 L 92.160156 69.761719 Z M 86.234375 68.058594 C 86.234375 68.058594 86.132812 67.957031 85.984375 67.808594 C 85.835938 67.65625 85.644531 67.453125 85.449219 67.25 C 85.058594 66.839844 84.667969 66.429688 84.667969 66.429688 C 84.667969 66.429688 84.65625 66.417969 84.644531 66.402344 C 84.628906 66.390625 84.613281 66.375 84.59375 66.359375 C 84.5625 66.328125 84.53125 66.296875 84.53125 66.296875 L 87.109375 64.507812 C 87.109375 64.507812 87.140625 64.542969 87.171875 64.578125 C 87.191406 64.59375 87.207031 64.613281 87.21875 64.625 C 87.234375 64.640625 87.242188 64.652344 87.242188 64.652344 C 87.242188 64.652344 87.597656 65.054688 87.949219 65.457031 C 88.128906 65.660156 88.300781 65.859375 88.4375 66.007812 C 88.574219 66.15625 88.664062 66.253906 88.664062 66.253906 Z M 83.097656 64.972656 C 83.097656 64.972656 83.015625 64.898438 82.890625 64.785156 C 82.828125 64.726562 82.757812 64.660156 82.679688 64.585938 C 82.597656 64.519531 82.515625 64.449219 82.425781 64.378906 C 82.085938 64.09375 81.742188 63.808594 81.742188 63.808594 L 84.375 61.703125 C 84.375 61.703125 84.714844 62.027344 85.054688 62.351562 C 85.136719 62.433594 85.222656 62.515625 85.304688 62.589844 C 85.378906 62.671875 85.449219 62.746094 85.507812 62.8125 C 85.628906 62.941406 85.710938 63.027344 85.710938 63.027344 Z M 80.273438 62.628906 L 78.886719 61.597656 L 81.527344 59.140625 L 82.917969 60.34375 Z M 77.375 60.597656 C 77.375 60.597656 77.289062 60.539062 77.15625 60.453125 C 77.027344 60.367188 76.84375 60.269531 76.664062 60.164062 C 76.308594 59.953125 75.953125 59.746094 75.953125 59.746094 L 78.535156 56.910156 C 78.535156 56.910156 78.902344 57.164062 79.265625 57.417969 C 79.449219 57.546875 79.636719 57.671875 79.769531 57.773438 C 79.90625 57.878906 79.992188 57.945312 79.992188 57.945312 Z M 74.425781 58.921875 C 74.425781 58.921875 74.070312 58.742188 73.714844 58.558594 C 73.539062 58.472656 73.355469 58.398438 73.21875 58.335938 C 73.082031 58.28125 72.992188 58.238281 72.992188 58.238281 L 75.453125 54.996094 C 75.453125 54.996094 75.546875 55.046875 75.6875 55.125 C 75.828125 55.203125 76.023438 55.300781 76.210938 55.414062 C 76.582031 55.644531 76.953125 55.875 76.953125 55.875 Z M 68.511719 56.65625 C 68.511719 56.65625 68.15625 56.566406 67.804688 56.480469 C 67.71875 56.457031 67.628906 56.433594 67.550781 56.414062 C 67.464844 56.394531 67.386719 56.382812 67.320312 56.371094 C 67.1875 56.34375 67.097656 56.328125 67.097656 56.328125 L 69.070312 52.238281 C 69.070312 52.238281 69.167969 52.269531 69.316406 52.3125 C 69.390625 52.335938 69.476562 52.359375 69.570312 52.390625 C 69.660156 52.421875 69.753906 52.457031 69.851562 52.492188 C 70.242188 52.632812 70.628906 52.769531 70.628906 52.769531 Z M 64.910156 55.972656 C 64.738281 55.949219 64.5625 55.945312 64.433594 55.929688 C 64.304688 55.921875 64.21875 55.914062 64.21875 55.914062 L 65.828125 51.421875 C 65.828125 51.421875 65.925781 51.441406 66.070312 51.46875 C 66.21875 51.5 66.421875 51.53125 66.613281 51.578125 C 67.003906 51.675781 67.394531 51.773438 67.394531 51.773438 L 65.601562 56.070312 C 65.601562 56.070312 65.253906 56.023438 64.910156 55.972656 Z M 62.542969 55.824219 C 62.417969 55.8125 62.246094 55.816406 62.078125 55.824219 C 61.742188 55.828125 61.40625 55.832031 61.40625 55.832031 L 62.582031 50.964844 C 62.582031 50.964844 62.972656 51.003906 63.363281 51.042969 C 63.5625 51.0625 63.757812 51.078125 63.902344 51.105469 C 64.050781 51.125 64.148438 51.140625 64.148438 51.140625 L 62.753906 55.832031 C 62.753906 55.832031 62.667969 55.828125 62.542969 55.824219 Z M 59.335938 55.984375 C 59.171875 55.996094 59.011719 56.023438 58.890625 56.042969 C 58.769531 56.0625 58.6875 56.074219 58.6875 56.074219 L 59.367188 50.878906 C 59.367188 50.878906 59.460938 50.878906 59.609375 50.871094 C 59.753906 50.867188 59.945312 50.859375 60.140625 50.867188 C 60.527344 50.871094 60.914062 50.875 60.914062 50.875 L 59.988281 55.917969 C 59.988281 55.917969 59.660156 55.953125 59.335938 55.984375 Z M 57.28125 56.320312 C 57.246094 56.328125 57.199219 56.339844 57.140625 56.355469 C 57.023438 56.382812 56.867188 56.417969 56.714844 56.453125 C 56.5625 56.488281 56.410156 56.523438 56.296875 56.558594 C 56.183594 56.589844 56.109375 56.609375 56.109375 56.609375 L 56.226562 51.136719 C 56.226562 51.136719 56.320312 51.125 56.457031 51.105469 C 56.597656 51.082031 56.785156 51.0625 56.972656 51.042969 C 57.160156 51.023438 57.351562 51.003906 57.492188 50.988281 C 57.5625 50.980469 57.621094 50.976562 57.664062 50.96875 C 57.703125 50.964844 57.726562 50.964844 57.726562 50.964844 L 57.332031 56.308594 C 57.332031 56.308594 57.3125 56.3125 57.28125 56.320312 Z M 54.683594 57.058594 C 54.582031 57.101562 54.441406 57.140625 54.308594 57.199219 C 54.175781 57.253906 54.046875 57.308594 53.945312 57.347656 C 53.84375 57.386719 53.785156 57.417969 53.785156 57.417969 L 53.253906 51.734375 C 53.253906 51.734375 53.335938 51.707031 53.46875 51.679688 C 53.597656 51.648438 53.773438 51.605469 53.945312 51.5625 C 54.117188 51.515625 54.300781 51.484375 54.433594 51.453125 C 54.566406 51.425781 54.65625 51.40625 54.65625 51.40625 L 54.859375 56.996094 C 54.859375 56.996094 54.789062 57.019531 54.683594 57.058594 Z M 43.960938 22 C 44.148438 21.972656 44.367188 21.945312 44.601562 21.910156 C 44.726562 21.890625 44.824219 21.882812 44.933594 21.871094 C 45.042969 21.859375 45.152344 21.847656 45.265625 21.832031 C 45.375 21.824219 45.484375 21.808594 45.59375 21.800781 C 45.695312 21.789062 45.796875 21.78125 45.890625 21.773438 C 46.082031 21.757812 46.261719 21.746094 46.417969 21.730469 C 46.570312 21.71875 46.703125 21.710938 46.785156 21.707031 C 46.867188 21.703125 46.917969 21.699219 46.917969 21.699219 L 47.859375 27.449219 C 47.859375 27.449219 47.691406 27.460938 47.421875 27.488281 C 47.289062 27.5 47.132812 27.519531 46.964844 27.535156 C 46.882812 27.542969 46.796875 27.550781 46.707031 27.5625 C 46.617188 27.574219 46.519531 27.585938 46.425781 27.597656 C 46.234375 27.621094 46.058594 27.640625 45.863281 27.671875 C 45.667969 27.703125 45.488281 27.730469 45.332031 27.757812 C 45.140625 27.792969 44.980469 27.824219 44.871094 27.84375 C 44.863281 27.84375 44.859375 27.847656 44.851562 27.847656 L 44.847656 27.851562 C 44.84375 27.851562 44.839844 27.851562 44.835938 27.851562 C 44.832031 27.851562 44.828125 27.851562 44.828125 27.851562 L 45.152344 29.109375 C 45.152344 29.109375 45.15625 29.109375 45.164062 29.105469 C 45.175781 29.105469 45.160156 29.105469 45.253906 29.089844 C 45.390625 29.0625 45.632812 29.011719 45.839844 28.980469 C 45.949219 28.964844 46.074219 28.941406 46.210938 28.921875 C 46.332031 28.90625 46.464844 28.886719 46.609375 28.867188 C 46.75 28.851562 46.90625 28.828125 47.058594 28.808594 C 47.207031 28.792969 47.367188 28.777344 47.535156 28.761719 C 48.851562 28.625 50.5 28.542969 52.117188 28.5625 C 53.734375 28.578125 55.320312 28.675781 56.496094 28.804688 C 57.085938 28.863281 57.578125 28.914062 57.917969 28.964844 C 58.257812 29.011719 58.453125 29.039062 58.453125 29.039062 C 58.710938 29.074219 58.949219 29.179688 59.164062 29.335938 C 59.375 29.492188 59.558594 29.710938 59.703125 29.960938 C 60 30.460938 60.140625 31.109375 60.074219 31.785156 L 58.625 47.316406 C 58.5625 47.992188 58.371094 48.609375 58.128906 49.0625 C 58.007812 49.289062 57.871094 49.472656 57.730469 49.605469 C 57.585938 49.742188 57.4375 49.828125 57.28125 49.839844 C 57.28125 49.839844 57.167969 49.847656 56.964844 49.863281 C 56.765625 49.875 56.476562 49.914062 56.132812 49.957031 C 55.449219 50.03125 54.542969 50.183594 53.679688 50.367188 C 52.816406 50.554688 51.992188 50.792969 51.476562 50.984375 C 51.414062 51.007812 51.351562 51.03125 51.292969 51.050781 C 51.234375 51.074219 51.195312 51.09375 51.152344 51.113281 C 51.105469 51.132812 51.066406 51.148438 51.03125 51.164062 C 51.003906 51.179688 50.980469 51.191406 50.960938 51.203125 C 50.902344 51.234375 50.933594 51.222656 50.929688 51.222656 C 50.859375 51.261719 50.820312 51.285156 50.820312 51.285156 L 51.144531 52.542969 C 51.144531 52.542969 51.183594 52.515625 51.253906 52.476562 C 51.246094 52.480469 51.234375 52.484375 51.222656 52.484375 C 51.246094 52.46875 51.269531 52.449219 51.296875 52.433594 C 51.320312 52.414062 51.382812 52.386719 51.425781 52.363281 L 51.5 52.328125 C 51.527344 52.316406 51.554688 52.304688 51.585938 52.292969 C 51.640625 52.269531 51.691406 52.246094 51.738281 52.226562 C 51.824219 52.191406 51.898438 52.167969 51.898438 52.167969 L 52.835938 57.917969 C 52.835938 57.917969 52.828125 57.925781 52.808594 57.933594 C 52.785156 57.945312 52.769531 57.964844 52.742188 57.984375 C 52.71875 58.003906 52.691406 58.027344 52.660156 58.054688 C 52.644531 58.0625 52.625 58.078125 52.613281 58.089844 L 52.589844 58.125 L 52.574219 58.152344 C 52.582031 58.179688 52.585938 58.207031 52.59375 58.238281 L 52.597656 58.238281 L 52.605469 58.234375 L 52.617188 58.234375 L 52.636719 58.226562 C 52.648438 58.222656 52.664062 58.21875 52.675781 58.21875 C 52.699219 58.210938 52.71875 58.207031 52.738281 58.203125 C 52.75 58.195312 52.730469 58.210938 52.722656 58.214844 C 52.710938 58.222656 52.699219 58.226562 52.691406 58.234375 C 52.675781 58.246094 52.660156 58.257812 52.648438 58.261719 C 52.625 58.28125 52.613281 58.289062 52.613281 58.289062 L 52.878906 59.328125 C 52.882812 59.328125 52.882812 59.324219 52.886719 59.316406 C 52.917969 59.289062 52.953125 59.253906 52.988281 59.21875 C 53.03125 59.183594 53.085938 59.144531 53.144531 59.105469 C 53.171875 59.082031 53.203125 59.058594 53.230469 59.039062 C 53.265625 59.015625 53.300781 58.996094 53.339844 58.972656 C 53.414062 58.925781 53.496094 58.878906 53.578125 58.828125 C 53.765625 58.734375 53.960938 58.621094 54.195312 58.519531 C 54.65625 58.300781 55.230469 58.082031 55.886719 57.867188 C 56.054688 57.816406 56.222656 57.761719 56.394531 57.707031 C 56.570312 57.660156 56.75 57.613281 56.933594 57.5625 C 57.027344 57.539062 57.121094 57.511719 57.214844 57.484375 C 57.308594 57.464844 57.40625 57.445312 57.503906 57.421875 C 57.699219 57.378906 57.898438 57.335938 58.097656 57.289062 C 58.503906 57.226562 58.929688 57.125 59.367188 57.078125 C 59.582031 57.050781 59.808594 57.011719 60.035156 56.988281 C 60.261719 56.96875 60.492188 56.949219 60.722656 56.925781 C 60.957031 56.898438 61.191406 56.894531 61.429688 56.882812 C 61.667969 56.875 61.914062 56.859375 62.15625 56.855469 C 62.402344 56.855469 62.652344 56.859375 62.898438 56.859375 C 63.023438 56.859375 63.152344 56.855469 63.277344 56.863281 L 63.65625 56.886719 C 63.910156 56.898438 64.167969 56.910156 64.425781 56.925781 C 64.6875 56.953125 64.945312 56.980469 65.203125 57.011719 C 65.734375 57.050781 66.253906 57.160156 66.792969 57.242188 C 68.929688 57.613281 71.125 58.324219 73.191406 59.257812 C 75.257812 60.179688 77.167969 61.367188 78.796875 62.484375 C 79.207031 62.777344 79.59375 63.054688 79.964844 63.320312 C 80.054688 63.386719 80.152344 63.449219 80.238281 63.519531 C 80.324219 63.589844 80.414062 63.660156 80.496094 63.730469 C 80.667969 63.867188 80.832031 64 80.996094 64.132812 C 81.320312 64.394531 81.625 64.636719 81.90625 64.863281 C 81.976562 64.921875 82.046875 64.976562 82.113281 65.03125 C 82.179688 65.085938 82.242188 65.144531 82.304688 65.203125 C 82.429688 65.3125 82.546875 65.421875 82.660156 65.523438 C 83.117188 65.929688 83.476562 66.25 83.722656 66.46875 C 83.84375 66.582031 83.9375 66.664062 84.003906 66.722656 C 84.035156 66.75 84.058594 66.769531 84.074219 66.785156 C 84.09375 66.808594 84.105469 66.816406 84.105469 66.816406 C 84.105469 66.816406 84.425781 67.148438 84.902344 67.644531 C 85.371094 68.140625 86.039062 68.777344 86.691406 69.414062 C 87.363281 70.039062 88.027344 70.664062 88.554688 71.109375 C 89.074219 71.554688 89.417969 71.855469 89.417969 71.855469 C 89.417969 71.855469 89.605469 72.011719 89.964844 72.304688 C 90.140625 72.449219 90.363281 72.628906 90.621094 72.839844 C 90.878906 73.050781 91.1875 73.28125 91.523438 73.542969 C 92.886719 74.589844 94.878906 76.019531 97.390625 77.492188 C 98.652344 78.21875 100.03125 78.964844 101.523438 79.667969 C 103.015625 80.367188 104.613281 81.035156 106.277344 81.628906 C 109.613281 82.824219 113.234375 83.710938 116.832031 84.199219 C 120.433594 84.699219 124.003906 84.796875 127.277344 84.628906 C 128.914062 84.542969 130.480469 84.390625 131.949219 84.199219 C 133.417969 84 134.789062 83.761719 136.042969 83.507812 C 137.996094 83.105469 139.65625 82.660156 140.957031 82.265625 C 148.414062 82.613281 156.703125 80.398438 164.21875 75.5 C 179.855469 65.304688 186.195312 47.332031 178.375 35.363281 C 170.554688 23.394531 151.535156 21.960938 135.898438 32.15625 C 120.257812 42.355469 113.917969 60.324219 121.738281 72.296875 C 123.585938 75.125 126.058594 77.363281 128.964844 79 C 128.632812 78.902344 128.304688 78.804688 127.972656 78.699219 C 125.148438 77.804688 122.265625 76.628906 119.609375 75.183594 C 116.945312 73.746094 114.511719 72.0625 112.457031 70.308594 C 111.429688 69.429688 110.496094 68.542969 109.652344 67.671875 C 108.8125 66.796875 108.074219 65.929688 107.417969 65.125 C 106.117188 63.492188 105.175781 62.058594 104.554688 61.035156 C 104.398438 60.777344 104.257812 60.554688 104.140625 60.355469 C 104.027344 60.152344 103.929688 59.980469 103.851562 59.839844 C 103.691406 59.5625 103.609375 59.414062 103.609375 59.414062 C 103.609375 59.414062 103.460938 59.136719 103.238281 58.714844 C 103.011719 58.304688 102.738281 57.722656 102.457031 57.164062 C 102.199219 56.582031 101.929688 56.019531 101.75 55.578125 C 101.566406 55.140625 101.441406 54.851562 101.441406 54.851562 C 101.441406 54.851562 101.4375 54.84375 101.429688 54.824219 C 101.417969 54.796875 101.398438 54.757812 101.371094 54.703125 C 101.316406 54.601562 101.238281 54.449219 101.136719 54.246094 C 100.929688 53.84375 100.628906 53.253906 100.242188 52.503906 C 100.144531 52.316406 100.042969 52.117188 99.933594 51.910156 C 99.878906 51.804688 99.824219 51.699219 99.769531 51.589844 C 99.707031 51.480469 99.644531 51.371094 99.582031 51.261719 C 99.320312 50.8125 99.042969 50.328125 98.746094 49.8125 C 98.59375 49.550781 98.4375 49.285156 98.277344 49.007812 C 98.195312 48.871094 98.113281 48.730469 98.03125 48.589844 C 97.949219 48.445312 97.851562 48.304688 97.761719 48.164062 C 97.390625 47.589844 97 46.988281 96.589844 46.359375 C 94.902344 43.863281 92.757812 40.96875 90 38.089844 C 89.308594 37.375 88.578125 36.660156 87.835938 35.933594 C 87.078125 35.21875 86.273438 34.523438 85.46875 33.808594 C 85.054688 33.460938 84.628906 33.128906 84.203125 32.785156 C 83.777344 32.445312 83.351562 32.097656 82.90625 31.765625 C 82.457031 31.441406 82.007812 31.117188 81.554688 30.789062 C 81.097656 30.464844 80.644531 30.136719 80.167969 29.835938 C 79.222656 29.226562 78.277344 28.601562 77.285156 28.050781 C 76.792969 27.769531 76.300781 27.484375 75.804688 27.210938 C 75.300781 26.949219 74.796875 26.691406 74.292969 26.433594 C 74.039062 26.304688 73.785156 26.179688 73.535156 26.050781 C 73.28125 25.929688 73.023438 25.8125 72.765625 25.695312 C 72.25 25.460938 71.738281 25.230469 71.226562 25 C 70.714844 24.78125 70.195312 24.578125 69.679688 24.371094 C 69.164062 24.164062 68.648438 23.957031 68.128906 23.785156 C 67.609375 23.605469 67.097656 23.425781 66.585938 23.246094 C 66.074219 23.074219 65.558594 22.925781 65.050781 22.769531 C 64.03125 22.449219 63.019531 22.207031 62.03125 21.949219 C 61.535156 21.832031 61.042969 21.726562 60.554688 21.621094 C 60.3125 21.566406 60.070312 21.515625 59.828125 21.464844 C 59.585938 21.417969 59.347656 21.375 59.109375 21.332031 C 58.632812 21.246094 58.164062 21.160156 57.699219 21.082031 C 57.234375 21.015625 56.777344 20.949219 56.332031 20.882812 C 54.527344 20.640625 52.851562 20.492188 51.324219 20.429688 C 50.566406 20.390625 49.832031 20.386719 49.15625 20.378906 C 48.8125 20.382812 48.480469 20.386719 48.164062 20.390625 C 48.007812 20.394531 47.851562 20.394531 47.699219 20.398438 C 47.542969 20.40625 47.390625 20.410156 47.242188 20.417969 C 46.070312 20.460938 45.050781 20.558594 44.273438 20.65625 C 44.070312 20.6875 43.886719 20.710938 43.730469 20.734375 C 43.664062 20.742188 43.554688 20.761719 43.472656 20.777344 C 43.386719 20.792969 43.3125 20.804688 43.246094 20.816406 C 43.175781 20.832031 43.113281 20.839844 43.0625 20.851562 C 43.046875 20.855469 43.042969 20.855469 43.039062 20.855469 L 43.363281 22.109375 C 43.363281 22.109375 43.601562 22.066406 43.960938 22 " fill-opacity="1" fill-rule="nonzero"/></g></g></g><g clip-path="url(#id49)"><g clip-path="url(#id50)"><g clip-path="url(#id51)"><path fill="#ffffff" d="M 52.253906 56.808594 C 52.207031 56.609375 52.164062 56.410156 52.117188 56.21875 C 52.152344 56.375 52.191406 56.53125 52.226562 56.6875 C 52.234375 56.726562 52.242188 56.769531 52.253906 56.808594 " fill-opacity="1" fill-rule="nonzero"/><path fill="#ffffff" d="M 52.113281 56.195312 C 52.101562 56.148438 52.089844 56.101562 52.078125 56.050781 C 52.09375 56.109375 52.105469 56.160156 52.117188 56.21875 C 52.117188 56.210938 52.113281 56.203125 52.113281 56.195312 " fill-opacity="1" fill-rule="nonzero"/></g></g></g><g clip-path="url(#id52)"><g clip-path="url(#id53)"><g clip-path="url(#id54)"><path fill="#ffffff" d="M 51.605469 54.074219 C 51.601562 54.066406 51.597656 54.058594 51.597656 54.050781 C 51.699219 54.484375 51.800781 54.914062 51.605469 54.074219 " fill-opacity="1" fill-rule="nonzero"/></g></g></g><g clip-path="url(#id55)"><g clip-path="url(#id56)"><g clip-path="url(#id57)"><path fill="#ffffff" d="M 52.574219 58.152344 C 52.457031 57.652344 52.507812 57.871094 52.574219 58.152344 " fill-opacity="1" fill-rule="nonzero"/></g></g></g><g clip-path="url(#id58)"><g clip-path="url(#id59)"><g clip-path="url(#id60)"><path fill="#ffffff" d="M 52 55.710938 C 52.027344 55.824219 52.054688 55.9375 52.078125 56.050781 C 52.054688 55.9375 52.027344 55.824219 52 55.710938 " fill-opacity="1" fill-rule="nonzero"/></g></g></g></svg>